<?xml version="1.0" encoding="utf-8"?>
<!-- Generator: Adobe Illustrator 28.3.0, SVG Export Plug-In . SVG Version: 6.00 Build 0)  -->
<svg version="1.1" id="icon-0" xmlns:svgjs="http://svgjs.dev/svgjs"
	 xmlns="http://www.w3.org/2000/svg" xmlns:xlink="http://www.w3.org/1999/xlink" x="0px" y="0px" viewBox="0 0 2000 530"
	 style="enable-background:new 0 0 2000 530;" xml:space="preserve">
<style type="text/css">
	.st0{fill:#FFFFFF;}
	.st1{fill-rule:evenodd;clip-rule:evenodd;fill:#FFFFFF;}
</style>
<path id="text-0" class="st0" d="M1041.3,330.3l1.5,2.4c-5.5,26.3-9.9,53.5-13.1,81.8l0,0l-2.4,2.9c-68.1-2.3-117.3-3.4-147.5-3.4
	l0,0c-24,0-46.6,1.6-67.6,4.9l0,0l2.9-22.4c14.6-1.9,24.6-5.8,30-11.5c5.3-5.6,8-15.4,8-29.4l0,0l0.5-204.4
	c0-10.4-1.2-17.4-3.6-20.9c-2.5-3.6-7.3-5.4-14.4-5.4l0,0l-16.5,1l-1-1.9l3.4-21.4c33.1,1,55.6,1.5,67.6,1.5l0,0
	c38.6,0,68.6-0.4,90-1.3c21.4-0.8,40.1-2.3,56-4.6l0,0l1.5,2.9c-5.8,25.6-9.6,52.6-11.2,80.8l0,0l-23.4,1.9l1-20.9
	c0-11.4-1.5-19.2-4.4-23.7c-2.9-4.3-9.2-7.3-19-8.8c-9.7-1.4-26.8-2.1-51.1-2.1l0,0c-11.4,0-19.1,0.3-23.4,1c-4.2,0.6-7,2.2-8.3,4.6
	c-1.3,2.5-2.1,6.9-2.4,13.4l0,0l-3.9,94.4l50.1,0.5c12.7,0,32.4-1.8,59.4-5.4l0,0l1.9,2.4l-6.8,28.7c-36-1-58.7-1.5-68.1-1.5l0,0
	c-10.7,0-23.2,1.1-37.5,3.4l0,0l-1.9,92.9c0,9.4,0.8,16,2.4,19.7c1.6,3.8,5,6.3,10,7.6c5,1.3,13.7,1.9,26,1.9l0,0
	c27.3,0,46.7-1.3,58.2-3.9c11.5-2.6,19.7-7.8,24.5-15.6c4.9-7.8,8.6-21.1,11.2-39.9l0,0L1041.3,330.3z M1226.7,419.8
	c-29.2,0-54.8-6.2-76.9-18.5c-22.1-12.3-39-29.8-50.9-52.4c-11.8-22.5-17.7-49-17.7-79.5l0,0c0-32.4,7.3-61.7,21.9-87.9
	c14.6-26.1,34.8-46.5,60.5-61.3c25.8-14.7,55-22.1,87.4-22.1l0,0c12,0,24.2,0.9,36.7,2.6c12.5,1.8,23.1,3.6,31.6,5.4
	c8.6,1.8,14.1,3,16.4,3.7l0,0l1.9,2.9c-0.6,1.9-1.7,6.7-3.2,14.1c-1.4,7.5-3,17.2-4.9,29.2c-1.8,12-3.1,24.7-4.1,38l0,0l-23.4,1.9
	c0.3-1.6,0.6-4.6,1-9.1c0.3-4.3,0.5-9.3,0.5-14.8l0,0c0-30.2-23.8-45.3-71.5-45.3l0,0c-21.4,0-40.2,5.2-56.5,15.6s-28.7,25-37.5,44
	c-8.8,19-13.1,41.3-13.1,67l0,0c0,28.2,4.6,53,13.8,74.5c9.3,21.4,22.4,38,39.2,49.8c16.9,11.9,36.3,17.8,58.4,17.8l0,0
	c22.1,0,39.8-6.3,53.2-18.8c13.5-12.5,23.3-31.8,29.5-58.1l0,0l23.4-1.9c-1,4.9-3.1,15.6-6.3,32.3c-3.2,16.7-5.5,32.4-6.8,47l0,0
	l-2.9,4.4c0,0.3-5,2.2-14.9,5.5c-9.9,3.4-22.2,6.6-37,9.5C1259.9,418.3,1243.9,419.8,1226.7,419.8L1226.7,419.8z M1643.7,433.4
	c-28.2-43.8-55.6-85.6-82.4-125.4c-26.7-39.7-48.7-71.8-66-96.4c-17.2-24.5-28-39.9-32.5-46.4l0,0h-2.4l-2.4,207.8
	c0,7.1,1.1,12.2,3.3,15.1c2.3,2.9,6.2,4.4,11.8,4.4l0,0l24.7-0.5l1,1.9l-4.3,21.9c-3.6-0.3-10.9-0.7-21.9-1.2
	c-11-0.5-21-0.8-29.8-0.8l0,0c-8.1,0-16.9,0.6-26.5,1.8c-9.6,1.1-15.8,1.8-18.7,2.1l0,0l2.4-22.4c10-1.3,17.4-4.3,22.3-9.1
	c4.9-4.7,7.5-11.9,7.8-21.6l0,0l6.4-212.7c0-10.1-3-17.2-9.1-21.4c-6-4.2-17.1-7.1-33.3-8.8l0,0l-1.5-2.4l3.9-18
	c2.9,0.3,9.1,0.8,18.9,1.5c9.7,0.6,17.4,1,23,1l0,0c6.8,0,13.5-0.3,20-0.8c6.5-0.5,10.7-0.8,12.6-1.2l0,0
	c24.1,37.3,48.2,73.8,72.3,109.5c24.2,35.7,44.4,65,60.6,88.1c16.2,23,26.4,37.6,30.6,43.8l0,0h2.4V146.3c0-14-5.3-20.9-16-20.9l0,0
	l-18.6,0.5l-0.9-1.9l4.3-21.9c3.2,0.3,9.4,0.7,18.5,1.2c9.1,0.5,18.4,0.8,27.7,0.8l0,0c8.5,0,17.8-0.6,28-1.7
	c10.3-1.2,17-1.9,20.2-2.2l0,0l-2.4,22.4c-11.4,1.6-19.7,4.8-24.9,9.4c-5.1,4.7-7.9,11.8-8.2,21.2l0,0l-6.8,273.5L1643.7,433.4z
	 M1881.1,419.8c-29.2,0-54.8-6.2-76.9-18.5c-22.1-12.3-39-29.8-50.8-52.4c-11.9-22.5-17.8-49-17.8-79.5l0,0
	c0-32.4,7.3-61.7,21.9-87.9c14.6-26.1,34.8-46.5,60.6-61.3c25.8-14.7,54.9-22.1,87.3-22.1l0,0c12,0,24.3,0.9,36.8,2.6
	c12.5,1.8,23,3.6,31.6,5.4c8.6,1.8,14,3,16.3,3.7l0,0l1.9,2.9c-0.6,1.9-1.7,6.7-3.1,14.1c-1.5,7.5-3.1,17.2-4.9,29.2
	c-1.8,12-3.2,24.7-4.2,38l0,0l-23.4,1.9c0.3-1.6,0.6-4.6,1-9.1c0.3-4.3,0.5-9.3,0.5-14.8l0,0c0-30.2-23.8-45.3-71.5-45.3l0,0
	c-21.4,0-40.2,5.2-56.5,15.6c-16.2,10.4-28.7,25-37.5,44c-8.8,19-13.1,41.3-13.1,67l0,0c0,28.2,4.6,53,13.9,74.5
	c9.2,21.4,22.3,38,39.1,49.8c16.9,11.9,36.3,17.8,58.4,17.8l0,0c22.1,0,39.8-6.3,53.3-18.8c13.4-12.5,23.2-31.8,29.4-58.1l0,0
	l23.4-1.9c-1,4.9-3.1,15.6-6.3,32.3c-3.2,16.7-5.5,32.4-6.8,47l0,0l-2.9,4.4c0,0.3-4.9,2.2-14.8,5.5c-9.9,3.4-22.3,6.6-37,9.5
	C1914.3,418.3,1898.3,419.8,1881.1,419.8L1881.1,419.8z"/>
<path class="st1" d="M703.7,53.1v393.6c0,0-112-31.5-195.2-15.5C434,445.5,379.1,486,369.9,493.1v1.2c0,0-0.3-0.2-0.8-0.6
	c-0.5,0.4-0.8,0.6-0.8,0.6v-1.2c-9.2-7.1-64.1-47.6-138.6-61.9c-83.2-16-206.2,15.5-206.2,15.5V51.9c-7.2,1.1-14.8,2.2-23,3.5v424
	c0,0,134-34.5,225.1-16.9c89.6,17.2,143.8,69.1,143.8,69.1s54.1-51.9,143.8-69.1c91.2-17.5,219.6,16.9,219.6,16.9V57.2
	C732.9,57.2,721.7,55.3,703.7,53.1z M223,391.4c72.9,14,129.2,56.2,129.2,56.2V60.3c0,0-56.6-42.2-129.7-56.3
	C148.6-10.2,52,17.9,52,17.9v387.3C52,405.1,148.9,377.1,223,391.4z M675.2,406.6V19.3c0,0-88.5-28.1-162.4-13.9
	c-73,14-131.5,56.3-131.5,56.3V449c0,0,58.2-42.2,131.1-56.2C586.4,378.5,675.2,406.6,675.2,406.6z"/>
</svg>
