<?xml version="1.0" encoding="utf-8"?>
<!-- Generator: Adobe Illustrator 28.3.0, SVG Export Plug-In . SVG Version: 6.00 Build 0)  -->
<svg version="1.1" id="icon-0" xmlns:svgjs="http://svgjs.dev/svgjs"
	 xmlns="http://www.w3.org/2000/svg" xmlns:xlink="http://www.w3.org/1999/xlink" x="0px" y="0px" viewBox="0 0 732.3106 531.5426"
	 style="enable-background:new 0 0 732.3106 531.5426;" xml:space="preserve">
<style type="text/css">
	.st0{fill-rule:evenodd;clip-rule:evenodd;}
	.st1{display:none;fill:none;}
</style>
<path class="st0" d="M703.7,53.1v393.6c0,0-112-31.5-195.2-15.5C434,445.5,379.1,486,369.9,493.1v1.2c0,0-0.3-0.2-0.8-0.6
	c-0.5,0.4-0.8,0.6-0.8,0.6v-1.2c-9.2-7.1-64.1-47.6-138.6-61.9c-83.2-16-206.2,15.5-206.2,15.5V51.9c-7.2,1.1-14.8,2.2-23,3.5v424
	c0,0,134-34.5,225.1-16.9c89.6,17.2,143.8,69.1,143.8,69.1s54.1-51.9,143.8-69.1c91.2-17.5,219.6,16.9,219.6,16.9V57.2
	C732.9,57.2,721.7,55.3,703.7,53.1z M223,391.4c72.9,14,129.2,56.2,129.2,56.2V60.3c0,0-56.6-42.2-129.7-56.3
	C148.6-10.2,52,17.9,52,17.9v387.3C52,405.1,148.9,377.1,223,391.4z M675.2,406.6V19.3c0,0-88.5-28.1-162.4-13.9
	c-73,14-131.5,56.3-131.5,56.3V449c0,0,58.2-42.2,131.1-56.2C586.4,378.5,675.2,406.6,675.2,406.6z"/>
<rect x="0.6" y="0" class="st1" width="1996.4" height="531.5"/>
</svg>
